<?xml version="1.0"?>
<svg width="170" height="95" xmlns="http://www.w3.org/2000/svg" xmlns:svg="http://www.w3.org/2000/svg" xmlns:xlink="http://www.w3.org/1999/xlink">
 <!-- Created with SVG-edit - https://github.com/SVG-Edit/svgedit-->
 <defs>
  <symbol height="207" id="svg_8" width="370" xmlns="http://www.w3.org/2000/svg">
   <g>
    <title>Layer 1</title>
    <path d="m3,33.05c0,-1 0.78,-3.23 5,-7c4.77,-4.27 12,-9 19,-13c7,-4 14.92,-7.43 24,-9c7.94,-1.38 16,-1 23,-1c7,0 14.16,-0.42 20,2c6.2,2.56 10.92,5.11 15,8c2.94,2.08 6.17,4.92 8,9c2.21,4.91 3.9,10.01 5,16c0.92,5.01 2,10 2,14c0,6 0.49,12.02 0,18c-0.5,6.06 -2.72,10.22 -6,14c-2.78,3.2 -7.98,6.08 -13,7c-5.98,1.09 -12.04,1.15 -16,0c-3.04,-0.89 -6.35,-2.71 -8,-5c-1.31,-1.82 -2,-4 -2,-6c0,-3 0,-6 0,-10c0,-3 0,-6 2,-9c2,-3 6.61,-6.55 12,-10c5.65,-3.62 12.8,-6.44 19,-9c5.84,-2.42 11.84,-3.47 17,-5c4.89,-1.46 12.02,-0.51 18,-1c6.06,-0.5 12,-1 17,-1c4,0 8.04,-0.48 11,0c3.12,0.5 4.76,1.41 8,3c2.84,1.39 6,3 9,6c2,2 3.49,3.88 4,7c0.48,2.96 1,8 1,13c0,6 0.49,12.02 0,18c-0.5,6.06 -3.06,12.39 -6,18c-2.32,4.43 -5.72,8.22 -9,12c-1.85,2.13 -3.93,3.14 -6,4c-2.92,1.21 -6,2 -9,2c-3,0 -5,-1 -7,-3c-2,-2 -2.23,-4.16 -3,-6c-0.54,-1.31 -0.93,-3.98 0,-7c2.15,-6.96 6.21,-16.68 14,-25c8.23,-8.79 16.89,-14.33 25,-17c6.91,-2.28 12.93,-3.5 18,-4c3.98,-0.4 10,0 15,0c6,0 11,0 17,0c4,0 8,1 10,3c2,2 3.14,4.93 4,7c1.21,2.92 2.12,6.96 3,10c1.15,3.96 1,8 1,12c0,5 0.39,9.02 0,13c-0.5,5.07 -1.36,9.05 -2,13c-0.51,3.12 -1.57,7.13 -3,11c-1.55,4.19 -3.14,6.93 -4,9c-1.21,2.92 -2,5 -3,6c-1,1 -2,2 -4,3c-2,1 -2.82,1.48 -5,2c-1.95,0.46 -3.96,-1.55 -5,-5c-1.16,-3.83 -0.69,-7.08 0,-10c1.03,-4.36 6.03,-9.97 14,-17c9.03,-7.97 17.65,-16.58 29,-23c7.78,-4.41 14.94,-6.5 21,-7c5.98,-0.5 9.82,0.48 12,1c1.95,0.46 3,1 5,2c2,1 4.31,2.33 7,4c2.41,1.48 4,4 5,7c1,3 2,6 2,10c0,3 0.12,7.02 -1,12c-0.9,4.02 -1.58,10.15 -4,16c-2.57,6.19 -4.79,11.08 -7,16c-1.83,4.08 -3.12,6.96 -4,10c-1.15,3.96 -2,7 -3,9c-1,2 -2,3 -3,4l-1,1l-2,1" fill="none" id="svg_7" stroke="#000" stroke-width="6"/>
    <ellipse cx="310" cy="181.55" fill="#ff7f00" id="svg_6" rx="24.5" ry="22" stroke="#000" stroke-width="6"/>
    <path d="m287.99,185.54l43.5,-0.5" fill="none" id="svg_5" opacity="undefined" stroke="#7f0000" stroke-width="6"/>
    <line fill="none" id="svg_4" stroke="#ffaa56" stroke-width="6" x1="285.49" x2="332.49" y1="176.54" y2="176.54"/>
    <ellipse cx="310.49" cy="198.79" fill="none" id="svg_3" rx="11" ry="1.25" stroke="#3f007f" stroke-width="6"/>
    <ellipse cx="309.5" cy="181.05" fill="none" id="svg_2" rx="24.5" ry="22" stroke="#000" stroke-width="6"/>
    <text fill="#000000" font-family="Noto Sans JP" font-size="24" font-weight="bold" id="svg_1" stroke="#000" stroke-width="0" text-anchor="start" transform="matrix(2.39169, 0, 0, 2.26821, -672.718, -416.648)" x="423.7" xml:space="preserve" y="258.37">?</text>
   </g>
  </symbol>
 </defs>
 <g class="layer">
  <title>Layer 1</title>
  <use id="svg_9" transform="matrix(0.432432, 0, 0, 0.432432, 0, 0)" x="12.44" xlink:href="#svg_8" y="7.13"/>
  <path fill="#FF0000" id="svg_10" stroke="#000000" transform="matrix(1, 0, 0, 1, 0, 0)"/>
 </g>
</svg>